<svg xmlns="http://www.w3.org/2000/svg" width="66.43" height="79.05" viewBox="0 0 66.43 79.05"><path d="M55.539,41.777c-.036-6.476,2.9-11.369,8.825-14.97-3.318-4.743-8.33-7.359-14.948-7.871C43.152,18.442,36.3,22.585,33.8,22.585c-2.645,0-8.719-3.476-13.484-3.476C10.465,19.272,0,26.967,0,42.621a43.987,43.987,0,0,0,2.541,14.33c2.259,6.476,10.412,22.361,18.919,22.1,4.448-.106,7.589-3.159,13.378-3.159,5.613,0,8.524,3.159,13.484,3.159,8.574-.123,15.954-14.56,18.108-21.055C54.922,52.575,55.539,42.11,55.539,41.777ZM45.55,12.8A16.612,16.612,0,0,0,49.785,0,18.713,18.713,0,0,0,37.8,6.159a16.882,16.882,0,0,0-4.518,12.689C37.891,19.2,42.091,16.837,45.55,12.8Z"/></svg>