<svg xmlns="http://www.w3.org/2000/svg" width="62.199" height="86.932" viewBox="0 0 62.199 86.932"><defs><style>.a{fill:#5382a1;}.b{fill:#f8981d;}</style></defs><g transform="translate(-320.001 -294)"><path class="a" d="M4.377,0S.9,2.023,6.853,2.708c7.215.823,10.9.7,18.853-.8a32.8,32.8,0,0,0,5.01,2.446C12.892,11.993-9.623,3.911,4.377,0Z" transform="translate(334.907 360.294)"/><path class="a" d="M4.9,0S1,2.89,6.958,3.506A73.549,73.549,0,0,0,31.284,2.338a10.8,10.8,0,0,0,3.747,2.284C13.481,10.922-10.522,5.122,4.9,0" transform="translate(332.307 351.464)"/><path class="b" d="M4.029,24.938c4.392,5.056-1.154,9.606-1.154,9.606S14.026,28.787,8.9,21.579C4.122,14.856.454,11.516,20.311,0c0,0-31.17,7.785-16.282,24.939" transform="translate(350.213 311.241)"/><path class="a" d="M56.57.769s2.373,2.122-2.613,3.763C44.476,7.649,14.5,8.59,6.166,4.656,3.172,3.243,8.787,1.281,10.553.87A10.526,10.526,0,0,1,13.446.518c-3.33-2.545-21.521,5-9.24,7.158C37.7,13.569,65.256,5.022,56.569.77" transform="translate(320.001 366.897)"/><path class="a" d="M15.988,0S-.56,3.93,10.128,5.358c4.513.6,13.509.467,21.888-.235,6.848-.578,13.725-1.806,13.725-1.806a29.05,29.05,0,0,0-4.162,2.227C24.779,9.964-7.688,7.908,1.658,3.387A31.311,31.311,0,0,1,15.988,0Z" transform="translate(327.314 341.63)"/><path class="a" d="M.344,17.473C17.426,8.6,9.528.066,4.015,1.215a12.787,12.787,0,0,0-1.954.525A3.113,3.113,0,0,1,3.521.614C14.427-3.22,22.815,11.923,0,17.92a1.486,1.486,0,0,0,.343-.447" transform="translate(367.691 340.463)"/><path class="b" d="M21.047,0s9.46,9.464-8.973,24.016C-2.707,35.689,8.7,42.345,12.068,49.95,3.44,42.165-2.892,35.312,1.356,28.934,7.591,19.572,24.864,15.034,21.047,0Z" transform="translate(339.189 294)"/><path class="a" d="M12.872,8.341C29.272,9.391,54.448,7.759,55.044,0c0,0-1.146,2.941-13.551,5.277A134.809,134.809,0,0,1,0,5.915S2.1,7.649,12.872,8.341Z" transform="translate(327.156 372.304)"/></g></svg>